<?xml version="1.0" encoding="iso-8859-1"?>
<!-- Generator: Adobe Illustrator 18.0.0, SVG Export Plug-In . SVG Version: 6.00 Build 0)  -->
<!DOCTYPE svg PUBLIC "-//W3C//DTD SVG 1.1//EN" "http://www.w3.org/Graphics/SVG/1.1/DTD/svg11.dtd">
<svg version="1.1" id="Capa_1" xmlns="http://www.w3.org/2000/svg" xmlns:xlink="http://www.w3.org/1999/xlink" x="0px" y="0px"
	 viewBox="0 0 297.5 297.5" style="enable-background:new 0 0 297.5 297.5;" xml:space="preserve">
<g>
	<g id="XMLID_23_">
		<g>
			<path style="fill:#F5B543;" d="M234.176,93.44l-31.99,64.31c-6.71-11.27-19.01-18.84-33.05-18.84
				c-21.189,0-38.43,17.24-38.43,38.43c0,21.2,17.24,38.441,38.43,38.441c1.46,0,2.891-0.09,4.311-0.25l-24.7,49.64l-48.22-96.93
				c5.89-0.41,11.68-2.04,17.04-4.891c10.029-5.34,17.38-14.25,20.689-25.109c3.33-10.86,2.22-22.36-3.109-32.391
				c-5.33-10.029-14.25-17.38-25.11-20.699c-10.851-3.311-22.36-2.21-32.38,3.13c-4.67,2.48-8.75,5.739-12.12,9.62l-2.22-4.46
				c23.05-22.29,53.3-34.54,85.43-34.54C180.886,58.9,211.136,71.15,234.176,93.44z M204.676,115c3.86-3.86,3.86-10.12,0-13.98
				l-16.31-16.31c-3.86-3.86-10.12-3.86-13.98,0c-3.859,3.86-3.859,10.12,0,13.98L190.697,115c1.93,1.93,4.46,2.9,6.989,2.9
				C200.216,117.9,202.747,116.93,204.676,115z"/>
			<path style="fill:#B04919;" d="M169.136,158.68c10.29,0,18.67,8.37,18.67,18.66c0,10.29-8.38,18.66-18.67,18.66
				c-10.29,0-18.66-8.37-18.66-18.66C150.476,167.05,158.846,158.68,169.136,158.68z"/>
			<path style="fill:#B04919;" d="M117.686,115.13c2.851,5.37,3.44,11.521,1.671,17.33c-1.78,5.809-5.71,10.58-11.07,13.43
				c-5.36,2.851-11.521,3.44-17.32,1.66c-0.28-0.08-0.55-0.149-0.83-0.2l-14.17-28.479c1.82-5.67,5.7-10.33,10.97-13.14
				c5.36-2.851,11.521-3.44,17.33-1.671C110.067,105.84,114.836,109.77,117.686,115.13z"/>
			<path style="fill:#734502;" d="M251.006,59.62l-7.649,15.37c-26.12-23.181-59.391-35.86-94.61-35.86
				c-35.22,0-68.48,12.68-94.6,35.87l-7.65-15.38c28.02-25.59,64.06-39.601,102.25-39.601
				C186.947,20.02,222.987,34.03,251.006,59.62z"/>
			<path d="M270.086,50.51c3.01,3,3.76,7.59,1.86,11.4L157.596,291.77c-1.67,3.36-5.1,5.48-8.85,5.48s-7.18-2.12-8.85-5.48
				L25.546,61.91c-1.89-3.811-1.14-8.391,1.86-11.4c32.41-32.41,75.51-50.26,121.34-50.26C194.586,0.25,237.676,18.1,270.086,50.51z
				 M243.357,74.99l7.649-15.37c-28.02-25.59-64.059-39.601-102.26-39.601c-38.19,0-74.23,14.011-102.25,39.601L54.147,75
				c26.119-23.19,59.38-35.87,94.6-35.87C183.966,39.13,217.237,51.81,243.357,74.99z M202.186,157.75l31.99-64.31
				c-23.04-22.29-53.29-34.54-85.43-34.54c-32.13,0-62.38,12.25-85.43,34.54l2.22,4.46c3.37-3.881,7.45-7.141,12.12-9.62
				c10.02-5.34,21.529-6.44,32.38-3.13c10.86,3.319,19.78,10.67,25.11,20.699c5.329,10.03,6.439,21.53,3.109,32.391
				c-3.309,10.859-10.66,19.77-20.689,25.109c-5.36,2.851-11.15,4.48-17.04,4.891l48.22,96.93l24.7-49.64
				c-1.42,0.16-2.851,0.25-4.311,0.25c-21.189,0-38.43-17.24-38.43-38.441c0-21.189,17.24-38.43,38.43-38.43
				C183.176,138.91,195.476,146.48,202.186,157.75z M187.806,177.34c0-10.29-8.38-18.66-18.67-18.66
				c-10.29,0-18.66,8.37-18.66,18.66c0,10.29,8.37,18.66,18.66,18.66C179.426,196,187.806,187.63,187.806,177.34z M119.357,132.46
				c1.77-5.81,1.18-11.96-1.671-17.33c-2.85-5.36-7.619-9.29-13.42-11.07c-5.81-1.77-11.97-1.18-17.33,1.671
				c-5.27,2.81-9.149,7.47-10.97,13.14l14.17,28.479c0.28,0.051,0.55,0.12,0.83,0.2c5.8,1.78,11.96,1.19,17.32-1.66
				C113.647,143.04,117.577,138.27,119.357,132.46z"/>
			<path d="M204.676,101.02c3.86,3.86,3.86,10.12,0,13.98c-1.93,1.93-4.46,2.9-6.99,2.9c-2.529,0-5.059-0.971-6.989-2.9
				l-16.311-16.31c-3.859-3.86-3.859-10.12,0-13.98c3.86-3.86,10.12-3.86,13.98,0L204.676,101.02z"/>
		</g>
		<g>
		</g>
	</g>
</g>
<g>
</g>
<g>
</g>
<g>
</g>
<g>
</g>
<g>
</g>
<g>
</g>
<g>
</g>
<g>
</g>
<g>
</g>
<g>
</g>
<g>
</g>
<g>
</g>
<g>
</g>
<g>
</g>
<g>
</g>
</svg>
